<?xml version="1.0" encoding="UTF-8"?>
<svg width="451px" height="192px" viewBox="0 0 451 192" version="1.1" xmlns="http://www.w3.org/2000/svg" xmlns:xlink="http://www.w3.org/1999/xlink">
    <!-- Generator: Sketch 47 (45396) - http://www.bohemiancoding.com/sketch -->
    <title>hero-title</title>
    <desc>Created with Sketch.</desc>
    <defs></defs>
    <g id="Page-1" stroke="none" stroke-width="1" fill="none" fill-rule="evenodd">
        <g id="Desktop" transform="translate(-782.000000, -168.000000)">
            <g id="Group" transform="translate(781.000000, 73.000000)">
                <g id="hero-title" transform="translate(1.000000, 95.000000)">
                    <g transform="translate(0.000000, 1.000000)" fill="#FFFFFF">
                        <path d="M59.0626299,112.771978 C65.6505007,116.196904 70.776489,121.003403 74.4407484,127.191621 C78.1050079,133.379839 79.9371102,140.482561 79.9371102,148.5 C79.9371102,156.517439 78.0855175,163.639621 74.3822765,169.866758 C70.6790355,176.093896 65.455595,180.919855 58.7117983,184.34478 C51.9680016,187.769706 44.2302931,189.482143 35.4984407,189.482143 L1,189.482143 L1,107.634615 L36.3170478,107.634615 C44.8929743,107.634615 52.4747592,109.347052 59.0626299,112.771978 Z M47.8944906,169.282967 C51.0909723,167.336987 53.5857499,164.573736 55.3788981,160.993132 C57.1720464,157.412528 58.0686071,153.32603 58.0686071,148.733516 C58.0686071,144.063163 57.113575,139.937747 55.2034823,136.357143 C53.2933896,132.776539 50.6621789,129.993829 47.3097713,128.008929 C43.9573637,126.024029 40.1372356,125.031593 35.8492723,125.031593 L22.4007277,125.031593 L22.4007277,172.201923 L36.9017672,172.201923 C41.0338044,172.201923 44.698009,171.228947 47.8944906,169.282967 Z M91.7484407,107.634615 L156.418399,107.634615 L156.418399,124.681319 L113.149168,124.681319 L113.149168,139.976648 L152.20842,139.976648 L152.20842,156.906593 L113.149168,157.023352 L113.149168,172.43544 L157.587838,172.43544 L157.587838,189.482143 L91.7484407,189.482143 L91.7484407,107.634615 Z M214.364085,125.965659 C209.413437,124.331036 205.261971,123.513736 201.909563,123.513736 C199.258823,123.513736 197.173344,124.000224 195.653067,124.973214 C194.132789,125.946204 193.372661,127.366749 193.372661,129.23489 C193.372661,131.025192 194.035336,132.523575 195.360707,133.730082 C196.686077,134.93659 198.323275,135.909566 200.272349,136.649038 C202.221423,137.388511 205.10601,138.342027 208.926195,139.509615 C214.617492,141.144239 219.31469,142.778838 223.017931,144.413462 C226.721172,146.048085 229.898116,148.558362 232.548857,151.944368 C235.199597,155.330374 236.524948,159.747683 236.524948,165.196429 C236.524948,170.645174 235.082655,175.295997 232.198025,179.149038 C229.313395,183.00208 225.356834,185.901547 220.328222,187.847527 C215.299611,189.793508 209.705852,190.766484 203.546778,190.766484 C196.763999,190.766484 190.000813,189.579453 183.257017,187.205357 C176.51322,184.831261 170.685575,181.581522 165.773909,177.456044 L174.076923,160.759615 C178.20896,164.418059 183.101063,167.414823 188.753378,169.75 C194.405694,172.085177 199.414739,173.252747 203.780665,173.252747 C206.977147,173.252747 209.491415,172.668962 211.323545,171.501374 C213.155674,170.333785 214.071726,168.621348 214.071726,166.364011 C214.071726,164.49587 213.38956,162.939109 212.025208,161.693681 C210.660856,160.448254 208.945696,159.455819 206.879678,158.716346 C204.813659,157.976874 201.909582,157.101196 198.16736,156.089286 C192.554026,154.532501 187.915299,152.956281 184.25104,151.360577 C180.58678,149.764873 177.448818,147.351893 174.837058,144.121566 C172.225299,140.891238 170.919439,136.590686 170.919439,131.21978 C170.919439,126.160231 172.26428,121.723462 174.954002,117.909341 C177.643724,114.095219 181.463853,111.156833 186.414501,109.094093 C191.365149,107.031354 197.114832,106 203.663721,106 C209.588907,106 215.436042,106.836759 221.205301,108.510302 C226.974561,110.183845 232.042078,112.421689 236.408004,115.223901 L228.338877,132.270604 C223.972951,129.70191 219.314734,127.600283 214.364085,125.965659 Z M248.570166,107.634615 L269.970894,107.634615 L269.970894,189.482143 L248.570166,189.482143 L248.570166,107.634615 Z M341.306653,147.682692 L359.783784,147.682692 L359.783784,180.258242 C355.417858,183.44965 350.057984,186.037765 343.704002,188.022665 C337.35002,190.007565 331.327471,191 325.636175,191 C317.3721,191 309.907258,189.151346 303.241424,185.453984 C296.57559,181.756621 291.332659,176.677688 287.512474,170.217033 C283.692289,163.756378 281.782225,156.517439 281.782225,148.5 C281.782225,140.5604 283.75076,133.37984 287.68789,126.958104 C291.62502,120.536369 297.043365,115.496355 303.943087,111.837912 C310.84281,108.179469 318.541538,106.350275 327.039501,106.350275 C333.120613,106.350275 339.201633,107.459467 345.282744,109.677885 C351.363856,111.896302 356.509334,114.873608 360.719335,118.60989 L348.557173,133.554945 C345.59458,130.752733 342.183751,128.534349 338.324584,126.899725 C334.465417,125.265102 330.66478,124.447802 326.922557,124.447802 C322.556631,124.447802 318.61956,125.498616 315.111227,127.600275 C311.602893,129.701934 308.835249,132.581941 306.808212,136.240385 C304.781175,139.898828 303.767672,143.985325 303.767672,148.5 C303.767672,153.092514 304.781175,157.23739 306.808212,160.934753 C308.835249,164.632116 311.641874,167.531583 315.22817,169.633242 C318.814467,171.734901 322.790519,172.785714 327.156445,172.785714 C331.288482,172.785714 336.005171,171.462467 341.306653,168.815934 L341.306653,147.682692 Z M431.119543,107.634615 L451,107.634615 L451,189.482143 L432.288981,189.482143 L395.100832,140.56044 L395.100832,189.482143 L375.10343,189.482143 L375.10343,107.634615 L393.931393,107.634615 L431.236486,156.906593 L431.119543,107.634615 Z" id="DESIGN"></path>
                        <path d="M25.9571938,60.2156863 C28.9972407,63.3156084 32.8557039,64.8655462 37.5326992,64.8655462 C42.1317445,64.8655462 45.8537974,63.3349826 48.6989695,60.2738095 C51.5441416,57.2126364 52.9667063,53.085927 52.9667063,47.8935574 L52.9667063,0 L74.3638526,0 L74.3638526,47.8935574 C74.3638526,54.9458803 72.8633391,61.1262573 69.8622671,66.4348739 C66.8611952,71.7434906 62.5740139,75.8314516 57.0005945,78.6988796 C51.4271752,81.5663075 44.8989673,83 37.4157749,83 C29.9325825,83 23.3654002,81.5663075 17.7140309,78.6988796 C12.0626617,75.8314516 7.69753158,71.7434906 4.61850971,66.4348739 C1.53948784,61.1262573 0,54.9458803 0,47.8935574 L0,0 L21.3971463,0 L21.3971463,47.8935574 C21.3971463,53.0084289 22.9171469,57.1157641 25.9571938,60.2156863 Z M90.1486326,0 L111.545779,0 L111.545779,22.1472813 L111.545779,81.4887955 L90.1486326,81.4887955 L90.1486326,0 Z M203.957194,60.2156863 C206.997241,63.3156084 210.855704,64.8655462 215.532699,64.8655462 C220.131744,64.8655462 223.853797,63.3349826 226.698969,60.2738095 C229.544142,57.2126364 230.966706,53.085927 230.966706,47.8935574 L230.966706,0 L252.363853,0 L252.363853,47.8935574 C252.363853,54.9458803 250.863339,61.1262573 247.862267,66.4348739 C244.861195,71.7434906 240.574014,75.8314516 235.000595,78.6988796 C229.427175,81.5663075 222.898967,83 215.415775,83 C207.932582,83 201.3654,81.5663075 195.714031,78.6988796 C190.062662,75.8314516 185.697532,71.7434906 182.61851,66.4348739 C179.539488,61.1262573 178,54.9458803 178,47.8935574 L178,0 L199.397146,0 L199.397146,47.8935574 C199.397146,53.0084289 200.917147,57.1157641 203.957194,60.2156863 Z M262.870789,0 L287.775664,0 L303.092747,23.1330532 L318.526754,0 L343.782402,0 L316.772889,38.942577 L346.120888,81.4887955 L320.514467,81.4887955 L303.092747,56.2633053 L286.021799,81.4887955 L261,81.4887955 L290.11415,39.9887955 L262.870789,0 Z" id="UIUX"></path>
                    </g>
                    <polygon id="Rectangle-Copy" fill="#63F6EB" points="152.771906 0.29200653 161.148492 0.29200653 139.410792 82.5985946 131.034206 82.5985946"></polygon>
                </g>
            </g>
        </g>
    </g>
</svg>