<svg width="451" height="192" viewBox="0 0 451 192" xmlns="http://www.w3.org/2000/svg">
    <title>
        hero-title
    </title>
    <g fill="none" fill-rule="evenodd">
        <g fill="#FFF">
            <path d="M59.063 113.772c6.588 3.425 11.713 8.231 15.378 14.42 3.664 6.188 5.496 13.29 5.496 21.308 0 8.017-1.851 15.14-5.555 21.367-3.703 6.227-8.926 11.053-15.67 14.478-6.744 3.425-14.482 5.137-23.214 5.137H1v-81.847h35.317c8.576 0 16.158 1.712 22.746 5.137zm-11.169 56.511c3.197-1.946 5.692-4.71 7.485-8.29 1.793-3.58 2.69-7.667 2.69-12.26 0-4.67-.955-8.795-2.866-12.376-1.91-3.58-4.54-6.363-7.893-8.348-3.353-1.985-7.173-2.977-11.46-2.977H22.4v47.17h14.502c4.132 0 7.796-.973 10.992-2.919zm43.854-61.648h64.67v17.046H113.15v15.296h39.06v16.93l-39.06.116v15.412h44.439v17.047h-65.84v-81.847zm122.616 18.33c-4.95-1.634-9.102-2.451-12.454-2.451-2.651 0-4.737.486-6.257 1.46-1.52.972-2.28 2.393-2.28 4.26 0 1.791.662 3.29 1.988 4.496 1.325 1.207 2.962 2.18 4.911 2.919 1.95.74 4.834 1.693 8.654 2.86 5.691 1.635 10.389 3.27 14.092 4.904 3.703 1.635 6.88 4.145 9.53 7.531 2.652 3.386 3.977 7.804 3.977 13.252 0 5.45-1.442 10.1-4.327 13.953-2.885 3.853-6.841 6.753-11.87 8.699-5.028 1.946-10.622 2.918-16.781 2.918-6.783 0-13.546-1.187-20.29-3.56-6.744-2.375-12.571-5.624-17.483-9.75l8.303-16.696c4.132 3.658 9.024 6.655 14.676 8.99 5.653 2.335 10.662 3.503 15.028 3.503 3.196 0 5.71-.584 7.543-1.752 1.832-1.167 2.748-2.88 2.748-5.137 0-1.868-.682-3.425-2.047-4.67-1.364-1.246-3.08-2.238-5.145-2.978-2.066-.74-4.97-1.615-8.713-2.627-5.613-1.556-10.252-3.133-13.916-4.728-3.664-1.596-6.802-4.01-9.414-7.24-2.612-3.23-3.918-7.53-3.918-12.901 0-5.06 1.345-9.497 4.035-13.31 2.69-3.815 6.51-6.753 11.46-8.816 4.951-2.063 10.7-3.094 17.25-3.094 5.925 0 11.772.837 17.541 2.51 5.77 1.674 10.837 3.912 15.203 6.714l-8.07 17.047a71.956 71.956 0 0 0-13.974-6.305zm34.206-18.33h21.4v81.847h-21.4v-81.847zm92.737 40.048h18.477v32.575c-4.366 3.192-9.726 5.78-16.08 7.765-6.354 1.985-12.377 2.977-18.068 2.977-8.264 0-15.729-1.849-22.395-5.546-6.665-3.697-11.908-8.776-15.729-15.237-3.82-6.46-5.73-13.7-5.73-21.717 0-7.94 1.969-15.12 5.906-21.542 3.937-6.422 9.355-11.462 16.255-15.12 6.9-3.659 14.599-5.488 23.097-5.488 6.08 0 12.162 1.11 18.243 3.328 6.08 2.218 11.226 5.196 15.436 8.932l-12.162 14.945c-2.962-2.802-6.373-5.02-10.232-6.655-3.86-1.635-7.66-2.452-11.402-2.452-4.366 0-8.303 1.05-11.812 3.152-3.508 2.102-6.276 4.982-8.303 8.64-2.027 3.659-3.04 7.745-3.04 12.26 0 4.593 1.013 8.737 3.04 12.435 2.027 3.697 4.834 6.597 8.42 8.698 3.586 2.102 7.563 3.153 11.928 3.153 4.132 0 8.85-1.324 14.15-3.97v-21.133zm89.813-40.048H451v81.847h-18.711l-37.188-48.922v48.922h-19.998v-81.847h18.828l37.305 49.272-.116-49.272z"/>
            <path d="M25.957 61.216c3.04 3.1 6.899 4.65 11.576 4.65 4.599 0 8.32-1.531 11.166-4.592 2.845-3.061 4.268-7.188 4.268-12.38V1h21.397v47.894c0 7.052-1.5 13.232-4.502 18.54-3 5.31-7.288 9.397-12.861 12.265C51.427 82.566 44.899 84 37.416 84c-7.483 0-14.05-1.434-19.702-4.301-5.651-2.868-10.016-6.956-13.095-12.264C1.539 62.126 0 55.945 0 48.894V1h21.397v47.894c0 5.114 1.52 9.222 4.56 12.322zM90.15 1h21.397v81.489H90.149V1zm113.808 60.216c3.04 3.1 6.899 4.65 11.576 4.65 4.599 0 8.32-1.531 11.166-4.592 2.845-3.061 4.268-7.188 4.268-12.38V1h21.397v47.894c0 7.052-1.5 13.232-4.502 18.54-3 5.31-7.288 9.397-12.861 12.265C229.427 82.566 222.899 84 215.416 84c-7.483 0-14.05-1.434-19.702-4.301-5.651-2.868-10.016-6.956-13.095-12.264-3.08-5.309-4.619-11.49-4.619-18.541V1h21.397v47.894c0 5.114 1.52 9.222 4.56 12.322zM262.871 1h24.905l15.317 23.133L318.527 1h25.255l-27.01 38.943 29.349 42.546h-25.607l-17.421-25.226-17.071 25.226H261l29.114-41.5L262.871 1z"/>
        </g>
        <path fill="#63F6EB" d="M152.772.292h8.376l-21.737 82.307h-8.377z"/>
    </g>
</svg>
